<svg width="40" height="40" viewBox="0 0 40 40" fill="none" xmlns="http://www.w3.org/2000/svg">
<g clip-path="url(#clip0)">
<circle cx="20" cy="20" r="20" fill="#4CAF50"/>
<path d="M27.4 23.9782C27.4 25.4012 26.8526 26.6265 25.7577 27.6542C24.6629 28.682 23.2407 29.3167 21.4911 29.5585V31.9999C21.4911 32.1302 21.4416 32.2371 21.3425 32.3208C21.2435 32.4045 21.117 32.4464 20.9629 32.4464H18.7347C18.5916 32.4464 18.4679 32.4022 18.3633 32.3138C18.2588 32.2255 18.2065 32.1209 18.2065 31.9999V29.5585C17.4803 29.4748 16.7788 29.3307 16.1021 29.1261C15.4254 28.9215 14.8669 28.7145 14.4268 28.5052C13.9867 28.296 13.5795 28.0728 13.2054 27.8356C12.8313 27.5984 12.5755 27.4241 12.4379 27.3124C12.3004 27.2008 12.2041 27.1171 12.1491 27.0613C11.962 26.866 11.951 26.6754 12.1161 26.4893L13.8161 24.606C13.8931 24.513 14.0197 24.4572 14.1957 24.4386C14.3608 24.42 14.4928 24.4618 14.5919 24.5641L14.6249 24.592C15.8683 25.5128 17.2052 26.0941 18.6357 26.3359C19.0428 26.4103 19.4499 26.4475 19.8571 26.4475C20.7483 26.4475 21.5324 26.2475 22.2091 25.8476C22.8858 25.4477 23.2241 24.8803 23.2241 24.1456C23.2241 23.8852 23.1416 23.6387 22.9766 23.4062C22.8115 23.1737 22.6272 22.9784 22.4236 22.8203C22.2201 22.6621 21.8982 22.4878 21.4581 22.2971C21.0179 22.1064 20.6548 21.9576 20.3687 21.8507C20.0826 21.7437 19.6425 21.5926 19.0483 21.3973C18.6192 21.2485 18.2808 21.1322 18.0332 21.0485C17.7856 20.9648 17.4473 20.8416 17.0181 20.6788C16.589 20.516 16.2451 20.3719 15.9866 20.2463C15.728 20.1208 15.4171 19.9557 15.054 19.7511C14.6909 19.5464 14.3965 19.3488 14.171 19.1581C13.9454 18.9675 13.7061 18.7396 13.453 18.4746C13.1999 18.2095 13.0046 17.9398 12.867 17.6654C12.7295 17.391 12.614 17.0818 12.5204 16.7377C12.4269 16.3935 12.3801 16.0308 12.3801 15.6495C12.3801 14.366 12.9193 13.2406 13.9977 12.2734C15.076 11.3061 16.479 10.683 18.2065 10.404V8.44641C18.2065 8.3255 18.2588 8.22087 18.3633 8.13252C18.4679 8.04416 18.5916 7.99998 18.7347 7.99998H20.9629C21.117 7.99998 21.2435 8.04184 21.3425 8.12554C21.4416 8.20925 21.4911 8.3162 21.4911 8.44641V10.3482C22.1183 10.404 22.7262 10.5109 23.3149 10.669C23.9036 10.8271 24.3823 10.9829 24.7509 11.1364C25.1195 11.2898 25.4689 11.4642 25.799 11.6595C26.1291 11.8549 26.3437 11.9897 26.4427 12.0641C26.5417 12.1385 26.6243 12.2036 26.6903 12.2594C26.8773 12.4268 26.9048 12.6036 26.7728 12.7896L25.4359 14.8264C25.3478 14.9659 25.2213 15.0403 25.0562 15.0496C24.9022 15.0775 24.7536 15.045 24.6106 14.952C24.5776 14.9241 24.4978 14.8683 24.3713 14.7845C24.2447 14.7008 24.0302 14.5776 23.7276 14.4148C23.425 14.2521 23.1031 14.1033 22.762 13.9684C22.4209 13.8336 22.011 13.7127 21.5324 13.6057C21.0537 13.4987 20.5833 13.4453 20.1211 13.4453C19.0758 13.4453 18.223 13.6452 17.5628 14.0451C16.9026 14.4451 16.5725 14.9613 16.5725 15.5937C16.5725 15.8355 16.6193 16.0587 16.7128 16.2633C16.8063 16.468 16.9686 16.6609 17.1997 16.8423C17.4308 17.0237 17.6481 17.1771 17.8517 17.3027C18.0552 17.4282 18.3633 17.5724 18.776 17.7352C19.1886 17.8979 19.5215 18.0235 19.7745 18.1118C20.0276 18.2002 20.4127 18.3281 20.9299 18.4955C21.5131 18.6815 21.9587 18.828 22.2668 18.9349C22.5749 19.0419 22.9931 19.2047 23.5212 19.4232C24.0494 19.6418 24.4648 19.8394 24.7674 20.0161C25.07 20.1928 25.4111 20.4254 25.7907 20.7137C26.1704 21.002 26.4619 21.2973 26.6655 21.5996C26.8691 21.9018 27.0424 22.2576 27.1854 22.6668C27.3285 23.076 27.4 23.5132 27.4 23.9782Z" fill="white"/>
</g>
<defs>
<clipPath id="clip0">
<rect width="40" height="40" fill="white"/>
</clipPath>
</defs>
</svg>
