<svg width="40" height="40" viewBox="0 0 40 40" fill="none" xmlns="http://www.w3.org/2000/svg">
<path d="M39.4001 24.84C36.7305 35.5533 25.8765 42.0737 15.1601 39.4C4.44369 36.7264 -2.07371 25.8778 0.600092 15.1636C3.27389 4.44944 14.1225 -2.07395 24.8365 0.60005C35.5505 3.27405 42.074 14.1233 39.4001 24.84Z" fill="#FFEB3A"/>
<path d="M28.8199 17.1507C29.2176 14.4892 27.1912 13.0584 24.4199 12.104L25.3199 8.49903L23.1248 7.95224L22.2479 11.4624C21.6715 11.3188 21.0792 11.1824 20.4904 11.0488L21.3704 7.51544L19.1773 6.96863L18.2799 10.5722L13.8535 9.47583L13.2695 11.82C13.2695 11.82 14.8979 12.1932 14.8635 12.2164C15.7523 12.4384 15.9135 13.0264 15.8864 13.4928L13.4235 23.3688C13.3147 23.6388 13.0392 24.0436 12.4179 23.8888C12.4399 23.9208 10.8227 23.4888 10.8227 23.4888L9.73315 26.0046L14.1532 27.1207L13.2447 30.7677L15.4367 31.3144L16.3368 27.7066C16.9368 27.8691 17.5168 28.0191 18.0851 28.1602L17.1887 31.7513L19.3835 32.298L20.292 28.658C24.0345 29.366 26.849 29.0805 28.032 25.698C28.9864 22.973 27.9851 21.401 26.0159 20.3755C27.4499 20.0435 28.5299 19.1007 28.8181 17.1521L28.8199 17.1507ZM23.804 24.1824C23.124 26.9074 18.537 25.4349 17.0485 25.0649L18.2537 20.2338C19.7414 20.605 24.5115 21.3402 23.8048 24.1821L23.804 24.1824ZM24.4848 17.1121C23.8659 19.5921 20.0465 18.3321 18.807 18.0228L19.8981 13.64C21.1381 13.9496 25.1284 14.526 24.4831 17.1119" fill="black"/>
</svg>
